<?xml version="1.0" encoding="UTF-8"?>
<svg width="180" height="180" viewBox="0 0 180 180" xmlns="http://www.w3.org/2000/svg">
  <defs>
    <linearGradient id="grad1" x1="0%" y1="0%" x2="100%" y2="100%">
      <stop offset="0%" style="stop-color:#2563eb;stop-opacity:1" />
      <stop offset="50%" style="stop-color:#3b82f6;stop-opacity:1" />
      <stop offset="100%" style="stop-color:#1d4ed8;stop-opacity:1" />
    </linearGradient>
  </defs>
  
  <!-- Background with rounded corners for iOS -->
  <rect x="10" y="10" width="160" height="160" rx="35" ry="35" fill="url(#grad1)" stroke="#1e40af" stroke-width="2"/>
  
  <!-- Book Icon -->
  <path d="M45 35 L45 145 L135 145 L135 35 Z" fill="white" opacity="0.9"/>
  <path d="M50 40 L50 140 L130 140 L130 40 Z" fill="none" stroke="#1d4ed8" stroke-width="2"/>
  
  <!-- Pages -->
  <line x1="60" y1="55" x2="120" y2="55" stroke="#1d4ed8" stroke-width="1.5"/>
  <line x1="60" y1="65" x2="120" y2="65" stroke="#1d4ed8" stroke-width="1.5"/>
  <line x1="60" y1="75" x2="100" y2="75" stroke="#1d4ed8" stroke-width="1.5"/>
  <line x1="60" y1="90" x2="120" y2="90" stroke="#1d4ed8" stroke-width="1.5"/>
  <line x1="60" y1="100" x2="110" y2="100" stroke="#1d4ed8" stroke-width="1.5"/>
  <line x1="60" y1="110" x2="120" y2="110" stroke="#1d4ed8" stroke-width="1.5"/>
  <line x1="60" y1="125" x2="100" y2="125" stroke="#1d4ed8" stroke-width="1.5"/>
  
  <!-- Graduation Cap -->
  <path d="M75 25 L105 25 L108 35 L72 35 Z" fill="#fbbf24"/>
  <circle cx="108" cy="30" r="3" fill="#f59e0b"/>
  <path d="M90 20 L108 17 L90 14 L72 17 Z" fill="#f59e0b"/>
</svg>
