<?xml version="1.0" encoding="UTF-8"?>
<svg width="512" height="512" viewBox="0 0 512 512" xmlns="http://www.w3.org/2000/svg">
  <defs>
    <linearGradient id="grad1" x1="0%" y1="0%" x2="100%" y2="100%">
      <stop offset="0%" style="stop-color:#2563eb;stop-opacity:1" />
      <stop offset="50%" style="stop-color:#3b82f6;stop-opacity:1" />
      <stop offset="100%" style="stop-color:#1d4ed8;stop-opacity:1" />
    </linearGradient>
  </defs>
  
  <!-- Background Circle -->
  <circle cx="256" cy="256" r="240" fill="url(#grad1)" stroke="#1e40af" stroke-width="8"/>
  
  <!-- Book Icon -->
  <path d="M160 120 L160 392 L352 392 L352 120 Z" fill="white" opacity="0.9"/>
  <path d="M170 130 L170 382 L342 382 L342 130 Z" fill="none" stroke="#1d4ed8" stroke-width="3"/>
  
  <!-- Pages -->
  <line x1="190" y1="160" x2="322" y2="160" stroke="#1d4ed8" stroke-width="2"/>
  <line x1="190" y1="180" x2="322" y2="180" stroke="#1d4ed8" stroke-width="2"/>
  <line x1="190" y1="200" x2="280" y2="200" stroke="#1d4ed8" stroke-width="2"/>
  <line x1="190" y1="240" x2="322" y2="240" stroke="#1d4ed8" stroke-width="2"/>
  <line x1="190" y1="260" x2="300" y2="260" stroke="#1d4ed8" stroke-width="2"/>
  <line x1="190" y1="280" x2="322" y2="280" stroke="#1d4ed8" stroke-width="2"/>
  <line x1="190" y1="320" x2="280" y2="320" stroke="#1d4ed8" stroke-width="2"/>
  <line x1="190" y1="340" x2="322" y2="340" stroke="#1d4ed8" stroke-width="2"/>
  
  <!-- Graduation Cap -->
  <path d="M220 90 L292 90 L300 110 L212 110 Z" fill="#fbbf24"/>
  <circle cx="300" cy="100" r="8" fill="#f59e0b"/>
  <path d="M256 80 L300 70 L256 60 L212 70 Z" fill="#f59e0b"/>
  
  <!-- Research Symbol -->
  <circle cx="380" cy="140" r="35" fill="white" opacity="0.9"/>
  <circle cx="380" cy="140" r="25" fill="none" stroke="#1d4ed8" stroke-width="3"/>
  <line x1="399" y1="159" x2="415" y2="175" stroke="#1d4ed8" stroke-width="4" stroke-linecap="round"/>
</svg>
